<svg width="132" height="83" viewBox="0 0 132 83" fill="none" xmlns="http://www.w3.org/2000/svg">
<rect width="132" height="83" fill="white"/>
<path d="M48.1389 24.6189L33.5958 59.4327H24.1403L16.9972 31.6848C16.5861 29.9828 16.175 29.3639 14.8903 28.6418C12.6806 27.4556 9.13472 26.3209 6 25.6504L6.20556 24.6189H21.4681C23.4208 24.6189 25.1681 25.9083 25.5792 28.1777L29.3306 48.2923L38.7347 24.6189H48.1389ZM85.2931 48.086C85.3444 38.9054 72.6514 38.3897 72.7028 34.3152C72.7542 33.0774 73.9361 31.7364 76.5056 31.3754C77.7903 31.2206 81.3361 31.0659 85.3444 32.9226L86.9375 25.5473C84.7792 24.7736 82.0042 24 78.5611 24C69.6708 24 63.4528 28.745 63.4014 35.5014C63.35 40.5043 67.8722 43.2894 71.2639 44.9914C74.7583 46.6934 75.9403 47.7765 75.9403 49.3238C75.9403 51.6447 73.1653 52.6762 70.5444 52.7278C66.0222 52.7794 63.4014 51.49 61.3458 50.51L59.7014 58.1433C61.8083 59.1232 65.6625 59.9484 69.6708 60C79.1264 60 85.2417 55.3066 85.2931 48.086ZM108.726 59.4327H117L109.754 24.6189H102.097C100.35 24.6189 98.9111 25.6504 98.2944 27.1977L84.8306 59.4327H94.2347L96.0847 54.2235H107.596L108.726 59.4327ZM98.7056 47.106L103.433 34.0573L106.157 47.106H98.7056ZM60.9347 24.6189L53.5347 59.4327H44.5931L51.9931 24.6189H60.9347Z" fill="url(#paint0_linear)"/>
<defs>
<linearGradient id="paint0_linear" x1="17.4777" y1="59.0221" x2="109.415" y2="23.8878" gradientUnits="userSpaceOnUse">
<stop stop-color="#1A1E5A"/>
<stop offset="1" stop-color="#122D98"/>
</linearGradient>
</defs>
</svg>
